<svg id="Layer_1" data-name="Layer 1" xmlns="http://www.w3.org/2000/svg" viewBox="0 0 665.21 385.23"><defs><style>.cls-1{fill:#686868;}</style></defs><path class="cls-1" d="M283.38,118.3a13.85,13.85,0,0,1,13.83-13.83h11V87.21h-11a31.13,31.13,0,0,0-31.09,31.09v11h17.26Z"/><path class="cls-1" d="M368,87.21H357v17.26h11a13.85,13.85,0,0,1,13.83,13.83v11h17.27v-11A31.13,31.13,0,0,0,368,87.21Z"/><path class="cls-1" d="M283.38,189.08v-11H266.12v11a31.13,31.13,0,0,0,31.09,31.09h11V202.91h-11A13.85,13.85,0,0,1,283.38,189.08Z"/><path class="cls-1" d="M381.82,189.08A13.85,13.85,0,0,1,368,202.91H357v17.26h11a31.13,31.13,0,0,0,31.1-31.09v-11H381.82Z"/><path class="cls-1" d="M370.58,158.94l.25-2.69H353.64l-.3,2.11a20.95,20.95,0,0,1-41.47,0l-.31-2.11H294.37l.26,2.69a38.14,38.14,0,0,0,75.95,0Z"/><path class="cls-1" d="M114.05,250.46H93.48a1.38,1.38,0,0,0-1.3.94L71.37,311,49.26,251.4a1.37,1.37,0,0,0-1.3-.94H26a1,1,0,0,0-.94.94l.23,40.44L25,332.27a1,1,0,0,0,.94.94H40.28a1,1,0,0,0,.94-.94v-37L40.63,279l-.11-6.27,22.1,59.59a1.38,1.38,0,0,0,1.3.94h12.3a1.38,1.38,0,0,0,1.3-.94l20.1-57.22v3.66L97,295.26v37a1,1,0,0,0,.94.94h16.08a1,1,0,0,0,1-.94l-.24-40.43L115,251.4A1,1,0,0,0,114.05,250.46Z"/><path class="cls-1" d="M150.5,270.79c-19.39,0-31,12.77-31,32.16,0,18.44,11,31.8,31.33,31.8,17.14,0,27.78-9.93,29.2-21.16a.84.84,0,0,0-.83-.95H164.1a1.25,1.25,0,0,0-1.18.95c-1.54,6.62-5.8,9.34-11.82,9.34-8.52,0-13-5.09-13.72-16.55H181a1,1,0,0,0,.94-.95C181.6,284.15,170.6,270.79,150.5,270.79Zm-12.65,24.35c1.42-8.39,5.68-12.64,12.77-12.64,7.8,0,11.47,6.14,12.18,12.64Z"/><path class="cls-1" d="M244.08,294.56c0-14.9-8.39-23.65-21.28-23.65a24.57,24.57,0,0,0-19.62,9.1l.35-6.74a1,1,0,0,0-.94-.94H187.34a1,1,0,0,0-1,.94V304l-.24,28.26a1,1,0,0,0,.95.94h16.32a1,1,0,0,0,.94-.94l-.24-24.95v-4.49c0-13,6.86-18.92,13.25-18.92,5.32,0,9.22,4.26,9.22,10.88v12.53l-.24,24.95a1,1,0,0,0,1,.94h16.08a1,1,0,0,0,.94-.94l-.24-24.95Z"/><path class="cls-1" d="M306.9,272.33H290.59a1,1,0,0,0-.95.94l.24,25v4.49c0,13-6.86,18.92-13.24,18.92-5.32,0-9.22-4.26-9.22-10.88V298.22l.23-25a1,1,0,0,0-.94-.94H250.63a1,1,0,0,0-.95.94l.24,25V311c0,14.89,8.39,23.64,21.28,23.64a24.59,24.59,0,0,0,19.63-9.1l-.36,6.74a1,1,0,0,0,.95.94h15.25a1,1,0,0,0,.94-.94V301.53l.24-28.26A1,1,0,0,0,306.9,272.33Z"/><path class="cls-1" d="M417.58,284.23h-.42c-8,0-12.14,6.21-12.14,17.6,0,12.57,4.29,19,12,19h.19c8,0,12.24-6,12.35-17.92S425.45,284.33,417.58,284.23Zm-.33,32h-.19a5.46,5.46,0,0,1-5-2.67c-1.08-1.7-2.38-5.1-2.38-11.72,0-13,5.46-13,7.52-13h.36a5.68,5.68,0,0,1,5.18,2.76c1.07,1.66,2.33,5,2.28,11.26C424.85,316.21,419.33,316.21,417.25,316.21Z"/><path class="cls-1" d="M639.4,272.44a5.23,5.23,0,0,0-4.46-2.48H620.08a5.66,5.66,0,0,0-5.57,4.34l-6.1,21.1L601,273.94l0-.09,0-.1a5.93,5.93,0,0,0-5.5-3.79H578.66a5.16,5.16,0,0,0-3.23,1.15,5.23,5.23,0,0,0-3.27-1.15H558.5a5.69,5.69,0,0,0-5.54,4.23L544.22,301l-7.79-26.7a5.68,5.68,0,0,0-5.57-4.33h-16a5.21,5.21,0,0,0-3.29,1.16,5.17,5.17,0,0,0-3.28-1.16H494.68a5.69,5.69,0,0,0-5.54,4.23L480.4,301l-7.79-26.7A5.68,5.68,0,0,0,467,270h-16a5.19,5.19,0,0,0-3.12,1,5.44,5.44,0,0,0-3.4-1.22H429.82a5.48,5.48,0,0,0-4.1,1.88,26.93,26.93,0,0,0-12.73-3A27.26,27.26,0,0,0,391.3,279a35.21,35.21,0,0,0-6.95,16,23.52,23.52,0,0,0-9.12-8.61c-6.48-3.62-14.55-5.1-21.67-6.41-4.78-.87-9.28-1.69-12.26-3s-2.87-2.23-2.87-2.82a3.07,3.07,0,0,1,1.62-3c1.55-.95,4.15-1.47,7.31-1.47,10.4,0,10.95,5,11.13,6.69l0,.21,0,.2a5.67,5.67,0,0,0,5.51,4.59h15.74a5.47,5.47,0,0,0,4.27-2.1,5.22,5.22,0,0,0,1.05-4.17c-2.51-17.57-15.69-27.23-37.12-27.23-21.79,0-35.32,10.69-35.32,27.89,0,9.4,4,16.46,12,21A41.28,41.28,0,0,0,333,300.3a6,6,0,0,0-.74-.05H316.65a5.57,5.57,0,0,0-5.49,5.5v.17c.36,10.11,4.49,18.31,11.93,23.71,6.78,4.91,16,7.41,27.33,7.41,11.1,0,20-2.47,26.49-7.32A25.49,25.49,0,0,0,386,317.21a31.42,31.42,0,0,0,4.87,9c5.22,6.64,12.76,10.15,21.8,10.15a26.3,26.3,0,0,0,13-3.22,5.53,5.53,0,0,0,4.31,2.13h14.64a5.58,5.58,0,0,0,5.5-5.5l-.22-27.21L450,287.8l15.33,43.72,0,.09,0,.09a5.9,5.9,0,0,0,5.49,3.78h17.38a5.9,5.9,0,0,0,5.49-3.78l0-.08,0-.08,17.82-50,17.51,49.93,0,.09,0,.09a5.9,5.9,0,0,0,5.49,3.78h17.38a5.9,5.9,0,0,0,5.49-3.78l0-.08,0-.08,17.92-50.23,20.27,50.22-5.28,15.37a5.15,5.15,0,0,0,.4,4.67,5.2,5.2,0,0,0,4.46,2.49h13.88a5.91,5.91,0,0,0,5.49-3.79l0-.1,0-.11,25-72.94A5.2,5.2,0,0,0,639.4,272.44Zm-289,60c-20.11,0-34-8.52-34.64-26.66a.94.94,0,0,1,.87-.87h15.63a1,1,0,0,1,1,.87c1,8.52,4.92,14.21,17.48,14.21,9.95,0,15.41-3,15.41-10.17,0-17.26-48.84-3.6-48.84-34,0-14.31,11.14-23.27,30.7-23.27,17.92,0,30.27,7,32.56,23.38a.77.77,0,0,1-.76.88H364.07a1,1,0,0,1-1-.88c-.76-7-6.34-10.82-15.73-10.82-7.87,0-13.55,2.74-13.55,9.07,0,16.28,49.06,3.06,49.06,33.33C382.87,323.67,370.41,332.41,350.42,332.41ZM334.6,300.77c3.8,1.06,7.72,1.8,11.38,2.49,4.85.92,9.43,1.79,12.47,3.16s3.08,2.58,3.08,3.37c0,1.94,0,5.54-10.79,5.54-9.85,0-12.13-3.55-12.89-10.11l0-.19,0-.18A5.73,5.73,0,0,0,334.6,300.77Zm110.84,29a.93.93,0,0,1-.87.87H429.93a.94.94,0,0,1-.88-.87l.22-5.68a20.61,20.61,0,0,1-16.61,7.65c-16,0-24.36-12.68-24.36-29.07S397.69,273.3,413,273.3c7,0,12.46,2.51,16.28,7.1l-.32-5.13a.94.94,0,0,1,.87-.88h14.75a.94.94,0,0,1,.87.88l-.21,27.31Zm63.45-54.33L489.44,330a1.29,1.29,0,0,1-1.2.87H470.86a1.29,1.29,0,0,1-1.2-.87l-19.12-54.53a.59.59,0,0,1,.55-.87h16a1.06,1.06,0,0,1,1.09.87l12,41.19,13.44-41.19a1.07,1.07,0,0,1,1.09-.87h13.66A.59.59,0,0,1,508.89,275.46Zm63.82,0L553.26,330a1.29,1.29,0,0,1-1.2.87H534.68a1.29,1.29,0,0,1-1.2-.87l-19.12-54.53a.59.59,0,0,1,.55-.87h16a1.06,1.06,0,0,1,1.09.87l12,41.19,13.44-41.19a1.07,1.07,0,0,1,1.09-.87h13.66A.59.59,0,0,1,572.71,275.46Zm62.77,0-25,73.1a1.27,1.27,0,0,1-1.2.87H595.38a.6.6,0,0,1-.55-.87l5.9-17.15-22.61-56.06a.58.58,0,0,1,.54-.76h16.72a1.28,1.28,0,0,1,1.2.87l12.24,35.18L619,275.46a1.07,1.07,0,0,1,1.1-.87h14.86A.59.59,0,0,1,635.48,275.46Z"/><path class="cls-1" d="M126.06,383.09c-5.11,0-8.63-2.17-8.79-6.77a.24.24,0,0,1,.22-.22h4a.25.25,0,0,1,.25.22c.25,2.16,1.25,3.6,4.44,3.6,2.53,0,3.91-.75,3.91-2.58,0-4.38-12.4-.91-12.4-8.62,0-3.64,2.83-5.91,7.8-5.91,4.55,0,7.68,1.77,8.27,5.93a.21.21,0,0,1-.2.23h-4a.27.27,0,0,1-.25-.23c-.2-1.77-1.61-2.74-4-2.74-2,0-3.44.69-3.44,2.3,0,4.13,12.46.78,12.46,8.46C134.3,380.87,131.14,383.09,126.06,383.09Z"/><path class="cls-1" d="M142.73,382.64a.24.24,0,0,1-.22-.22l.08-9.49-.08-9.48a.24.24,0,0,1,.22-.23h13.12a.24.24,0,0,1,.22.23v2.69a.24.24,0,0,1-.22.22h-9.1l-.06,4.46H155a.25.25,0,0,1,.23.23v2.69a.24.24,0,0,1-.23.22h-8.35l.06,5.55h9.32a.24.24,0,0,1,.22.22v2.69a.24.24,0,0,1-.22.22Z"/><path class="cls-1" d="M173.41,378.32l-1.91-2.89h-2.78l.06,7a.24.24,0,0,1-.22.22h-3.8a.24.24,0,0,1-.22-.22l.05-9.49-.05-9.48a.24.24,0,0,1,.22-.23h7.88c4.85,0,7.65,2.06,7.65,6.11A5.61,5.61,0,0,1,176,375l4.86,7.46a.12.12,0,0,1-.11.19h-4.47a.37.37,0,0,1-.33-.19Zm-.61-12h-4.05l0,6.05h4.19c1.78,0,3.3-.83,3.3-2.94S175,366.3,172.8,366.3Z"/><path class="cls-1" d="M198.82,382.42a.27.27,0,0,1-.28.22h-5.07a.27.27,0,0,1-.28-.22l-6.27-19a.18.18,0,0,1,.17-.23h4.24a.28.28,0,0,1,.28.23l4.63,15.36,4.55-15.36a.28.28,0,0,1,.28-.23h3.72a.18.18,0,0,1,.16.23Z"/><path class="cls-1" d="M212.68,382.64a.24.24,0,0,1-.22-.22l.08-9.49-.08-9.48a.24.24,0,0,1,.22-.23h3.77a.24.24,0,0,1,.22.23l-.08,9.48.08,9.49a.24.24,0,0,1-.22.22Z"/><path class="cls-1" d="M229.55,373.38v9a.24.24,0,0,1-.22.22h-3.5a.24.24,0,0,1-.22-.22l.06-9.49-.06-9.48a.24.24,0,0,1,.22-.23h4.66a.41.41,0,0,1,.34.2l7.79,13.73-.17-3.72v-10a.24.24,0,0,1,.23-.23h3.49a.24.24,0,0,1,.22.23l0,9.48,0,9.49a.24.24,0,0,1-.22.22h-4.83a.4.4,0,0,1-.33-.19l-7.63-13.62,0,.52Z"/><path class="cls-1" d="M260.26,383.06c-5.77,0-9.68-4.11-9.68-10.13s3.94-10.12,9.52-10.12c4.82,0,7.9,2.38,8.93,6.49a.18.18,0,0,1-.17.22H265a.27.27,0,0,1-.28-.22,4.27,4.27,0,0,0-4.55-3.27c-3.38,0-5.18,2.66-5.18,7s1.85,6.85,5.3,6.85c2.77,0,4.57-1.61,4.68-4.6h-4.85a.25.25,0,0,1-.22-.23v-2.69a.24.24,0,0,1,.22-.22h9.15a.24.24,0,0,1,.22.22C269.53,379.54,266.26,383.06,260.26,383.06Z"/><path class="cls-1" d="M290.36,382.64a.24.24,0,0,1-.22-.22l.08-9.49-.08-9.48a.24.24,0,0,1,.22-.23h3.78a.24.24,0,0,1,.22.23l-.08,9.48.08,9.49a.24.24,0,0,1-.22.22Z"/><path class="cls-1" d="M307.23,373.38v9a.24.24,0,0,1-.22.22h-3.49a.25.25,0,0,1-.23-.22l.06-9.49-.06-9.48a.25.25,0,0,1,.23-.23h4.66a.39.39,0,0,1,.33.2l7.79,13.73-.16-3.72v-10a.24.24,0,0,1,.22-.23h3.5a.24.24,0,0,1,.22.23l-.06,9.48.06,9.49a.24.24,0,0,1-.22.22H315a.37.37,0,0,1-.33-.19l-7.63-13.62,0,.52Z"/><path class="cls-1" d="M333.51,382.64a.24.24,0,0,1-.22-.22l.14-9.49-.08-6.57h-5.41a.24.24,0,0,1-.22-.22v-2.69a.24.24,0,0,1,.22-.23H343a.24.24,0,0,1,.22.23v2.69a.24.24,0,0,1-.22.22h-5.41l-.08,6.57.13,9.49a.24.24,0,0,1-.22.22Z"/><path class="cls-1" d="M351.1,382.64a.25.25,0,0,1-.23-.22l.09-9.49-.09-9.48a.25.25,0,0,1,.23-.23h13.12a.24.24,0,0,1,.22.23v2.69a.24.24,0,0,1-.22.22h-9.1l-.06,4.46h8.35a.26.26,0,0,1,.23.23v2.69a.25.25,0,0,1-.23.22h-8.35l.06,5.55h9.32a.24.24,0,0,1,.22.22v2.69a.24.24,0,0,1-.22.22Z"/><path class="cls-1" d="M373.13,382.64a.24.24,0,0,1-.22-.22l.08-9.49-.08-9.48a.24.24,0,0,1,.22-.23h3.8a.24.24,0,0,1,.22.23l-.06,9.23.06,6.83h7.93a.25.25,0,0,1,.23.22v2.69a.25.25,0,0,1-.23.22Z"/><path class="cls-1" d="M393.12,382.64a.24.24,0,0,1-.22-.22l.08-9.49-.08-9.48a.24.24,0,0,1,.22-.23h3.8a.25.25,0,0,1,.23.23l-.06,9.23.06,6.83h7.93a.24.24,0,0,1,.22.22v2.69a.24.24,0,0,1-.22.22Z"/><path class="cls-1" d="M413.19,382.64a.25.25,0,0,1-.23-.22l.09-9.49-.09-9.48a.25.25,0,0,1,.23-.23H417a.24.24,0,0,1,.22.23l-.08,9.48.08,9.49a.24.24,0,0,1-.22.22Z"/><path class="cls-1" d="M435.07,383.06c-5.77,0-9.68-4.11-9.68-10.13s3.94-10.12,9.52-10.12c4.83,0,7.9,2.38,8.93,6.49a.17.17,0,0,1-.17.22h-3.91a.25.25,0,0,1-.27-.22,4.29,4.29,0,0,0-4.55-3.27c-3.39,0-5.19,2.66-5.19,7s1.86,6.85,5.3,6.85c2.77,0,4.57-1.61,4.69-4.6h-4.86a.25.25,0,0,1-.22-.23v-2.69a.24.24,0,0,1,.22-.22H444a.24.24,0,0,1,.22.22C444.34,379.54,441.07,383.06,435.07,383.06Z"/><path class="cls-1" d="M452.71,382.64a.24.24,0,0,1-.22-.22l.08-9.49-.08-9.48a.24.24,0,0,1,.22-.23h13.12a.25.25,0,0,1,.23.23v2.69a.25.25,0,0,1-.23.22h-9.1l-.05,4.46H465a.25.25,0,0,1,.22.23v2.69a.24.24,0,0,1-.22.22h-8.35l.05,5.55h9.33a.24.24,0,0,1,.22.22v2.69a.24.24,0,0,1-.22.22Z"/><path class="cls-1" d="M478.46,373.38v9a.24.24,0,0,1-.22.22h-3.5a.24.24,0,0,1-.22-.22l.05-9.49-.05-9.48a.24.24,0,0,1,.22-.23h4.66a.38.38,0,0,1,.33.2l7.8,13.73-.17-3.72v-10a.24.24,0,0,1,.23-.23h3.49a.24.24,0,0,1,.22.23l-.05,9.48.05,9.49a.24.24,0,0,1-.22.22h-4.83a.4.4,0,0,1-.33-.19l-7.63-13.62,0,.52Z"/><path class="cls-1" d="M509.2,383.06c-6,0-9.65-4.13-9.65-10,0-6.19,3.77-10.21,9.62-10.21,4.19,0,7.61,1.72,8.69,6.93a.19.19,0,0,1-.17.23H514a.3.3,0,0,1-.28-.23,4.34,4.34,0,0,0-4.6-3.69c-3.39,0-5.22,2.61-5.22,6.94s1.89,6.82,5.19,6.82c2.72,0,4.19-1.47,4.72-4.13a.24.24,0,0,1,.25-.22h3.77a.18.18,0,0,1,.17.22C516.94,381,513.78,383.06,509.2,383.06Z"/><path class="cls-1" d="M526.35,382.64a.24.24,0,0,1-.22-.22l.08-9.49-.08-9.48a.24.24,0,0,1,.22-.23h13.12a.24.24,0,0,1,.22.23v2.69a.24.24,0,0,1-.22.22h-9.1l-.06,4.46h8.35a.25.25,0,0,1,.23.23v2.69a.24.24,0,0,1-.23.22h-8.35l.06,5.55h9.32a.24.24,0,0,1,.22.22v2.69a.24.24,0,0,1-.22.22Z"/><path class="cls-1" d="M180.77,20.89h-4.69l0,9.33a.34.34,0,0,1-.32.32h-5.48a.34.34,0,0,1-.32-.32l.12-13.58L170,3.05a.34.34,0,0,1,.32-.32h10.49c6.71,0,10.57,3,10.57,8.94S187.4,20.89,180.77,20.89Zm.28-13.75h-5l0,9.34h5.17c2.34,0,4.33-1.35,4.33-4.69C185.54,8.61,183.91,7.14,181.05,7.14Z"/><path class="cls-1" d="M215.94,31.14c-8.5,0-14-5.92-14-14.42,0-8.86,5.48-14.58,14-14.58S230,7.74,230,16.72C230,25.22,224.44,31.14,215.94,31.14Zm0-4.65c5,0,7.79-3.7,7.79-9.77S221,6.79,215.94,6.79s-7.78,3.73-7.78,9.93C208.16,22.75,211,26.49,216,26.49Z"/><path class="cls-1" d="M262.44,30.54a.39.39,0,0,1-.4-.32L257.67,11l-4,19.22a.42.42,0,0,1-.4.32h-6.87a.39.39,0,0,1-.4-.32L239.64,3.05a.26.26,0,0,1,.24-.32h5.52a.42.42,0,0,1,.4.32l4.37,20.62,4.17-20.62a.41.41,0,0,1,.39-.32h6.4a.42.42,0,0,1,.4.32l4.4,21.06,4.33-21.06a.42.42,0,0,1,.4-.32h5.13a.25.25,0,0,1,.23.32l-6.51,27.17a.39.39,0,0,1-.4.32Z"/><path class="cls-1" d="M287.24,30.54a.34.34,0,0,1-.31-.32l.12-13.58-.12-13.59a.34.34,0,0,1,.31-.32H306a.34.34,0,0,1,.32.32V6.91a.34.34,0,0,1-.32.31H293l-.08,6.4h12a.34.34,0,0,1,.32.32v3.85a.34.34,0,0,1-.32.32h-12l.08,7.94h13.35a.34.34,0,0,1,.32.32v3.85a.34.34,0,0,1-.32.32Z"/><path class="cls-1" d="M331.18,24.34l-2.74-4.13h-4l.08,10a.34.34,0,0,1-.32.32h-5.44a.34.34,0,0,1-.32-.32l.08-13.58-.08-13.59a.34.34,0,0,1,.32-.32h11.28c6.95,0,11,2.94,11,8.74,0,4.1-2.27,6.92-6.2,8.11l7,10.68a.18.18,0,0,1-.16.28h-6.39a.55.55,0,0,1-.48-.28Zm-.87-17.2h-5.8l0,8.66h6c2.54,0,4.73-1.19,4.73-4.21S333.41,7.14,330.31,7.14Z"/><path class="cls-1" d="M353.24,30.54a.34.34,0,0,1-.32-.32L353,16.64l-.12-13.59a.34.34,0,0,1,.32-.32H372a.34.34,0,0,1,.32.32V6.91a.34.34,0,0,1-.32.31H359l-.08,6.4h12a.34.34,0,0,1,.32.32v3.85a.34.34,0,0,1-.32.32h-12l.08,7.94h13.35a.34.34,0,0,1,.32.32v3.85a.34.34,0,0,1-.32.32Z"/><path class="cls-1" d="M384.79,30.54a.34.34,0,0,1-.32-.32l.12-13.58-.12-13.59a.34.34,0,0,1,.32-.32h9.81c8,0,14.74,4.29,14.74,14.11s-6.84,13.7-14.66,13.7Zm5.76-4.49H395c4.49,0,8.1-2.66,8.1-9.25s-3.58-9.58-8.26-9.58h-4.29s-.08,4.69-.08,9.3S390.55,26,390.55,26.05Z"/><path class="cls-1" d="M451.25,30.54H439.09a.34.34,0,0,1-.32-.32l.12-13.58-.12-13.59a.34.34,0,0,1,.32-.32h12c5.68,0,9.89,2.07,9.89,6.88,0,3.33-1.75,5.24-4.81,6.15,3.74.84,5.57,3.3,5.57,6.36C461.7,28.16,456.57,30.54,451.25,30.54Zm-6.48-16.6h6.36c2.34,0,3.77-1.2,3.77-3.46C454.9,8,453.19,7,451.13,7h-6.28Zm.08,12.39h6.28c2.5,0,4.45-.95,4.45-4.21,0-2.94-2-4-4.45-4h-6.36Z"/><path class="cls-1" d="M485.91,30.22a.33.33,0,0,1-.31.32h-5.49a.34.34,0,0,1-.31-.32l.08-8.7L470.54,3a.18.18,0,0,1,.16-.28h6.24a.48.48,0,0,1,.43.28l5.69,12.83L488.85,3a.49.49,0,0,1,.44-.28H495a.18.18,0,0,1,.16.28l-9.33,18.51Z"/></svg>